# xmcd
#
# Track frame offsets: 
#        150
#        18425
#        36867
#        52245
#        70960
#        89880
#        112377
#        128587
#        144940
#        161517
#
# Disc length: 2389 seconds
#
# Revision: 5
# Processed by: cddbd v1.5.2PL0 Copyright (c) Steve Scherf et al.
# Submitted via: ExactAudioCopyFreeDBPlugin 1.0
#
DISCID=9309530a
DTITLE=江蕙 世紀金選 [Disc 2] - 江蕙 世紀金選 [Disc 2]
DYEAR=1998
DGENRE=Country
TTITLE0=藝界人生
TTITLE1=愛到袂凍愛
TTITLE2=愛不對人
TTITLE3=苦酒的探戈
TTITLE4=悲情歌聲
TTITLE5=秋雨彼一暝
TTITLE6=惜別的海岸
TTITLE7=不想伊
TTITLE8=相思夢
TTITLE9=一種感覺 [國語]
EXTD=\n YEAR: 1998
EXTT0=
EXTT1=
EXTT2=
EXTT3=
EXTT4=
EXTT5=
EXTT6=
EXTT7=
EXTT8=
EXTT9=
PLAYORDER=
